<svg width="32" height="32" viewBox="140 140 400 400" xmlns="http://www.w3.org/2000/svg">
  <rect x="140" y="140" width="400" height="400" rx="80" fill="#2c3228"/>
  <line x1="210" y1="340" x2="470" y2="340" stroke="#4a7c59" stroke-width="6" stroke-opacity="0.3"/>
  <line x1="210" y1="410" x2="470" y2="410" stroke="#4a7c59" stroke-width="6" stroke-opacity="0.15"/>
  <line x1="210" y1="270" x2="470" y2="270" stroke="#4a7c59" stroke-width="6" stroke-opacity="0.15"/>
  <line x1="240" y1="230" x2="240" y2="390" stroke="#dde0db" stroke-width="5" stroke-linecap="round"/>
  <rect x="226" y="290" width="28" height="70" rx="3" fill="#a85c4a"/>
  <line x1="310" y1="260" x2="310" y2="420" stroke="#dde0db" stroke-width="5" stroke-linecap="round"/>
  <rect x="296" y="310" width="28" height="80" rx="3" fill="#a85c4a"/>
  <line x1="380" y1="210" x2="380" y2="370" stroke="#dde0db" stroke-width="5" stroke-linecap="round"/>
  <rect x="366" y="240" width="28" height="80" rx="3" fill="#4a7c59"/>
  <line x1="450" y1="190" x2="450" y2="350" stroke="#dde0db" stroke-width="5" stroke-linecap="round"/>
  <rect x="436" y="210" width="28" height="90" rx="3" fill="#4a7c59"/>
  <polyline points="240,310 310,350 380,280 450,230" fill="none" stroke="#4a7c59" stroke-width="5" stroke-linecap="round" stroke-linejoin="round" stroke-opacity="0.85"/>
  <circle cx="240" cy="310" r="6" fill="#4a7c59"/>
  <circle cx="310" cy="350" r="6" fill="#4a7c59"/>
  <circle cx="380" cy="280" r="6" fill="#4a7c59"/>
  <circle cx="450" cy="230" r="6" fill="#4a7c59"/>
</svg>